<?xml version="1.0" standalone="no"?>
<!DOCTYPE svg PUBLIC "-//W3C//DTD SVG 1.1//EN"
  "http://www.w3.org/Graphics/SVG/1.1/DTD/svg11.dtd">
<svg version="1.1" xmlns="http://www.w3.org/2000/svg" xmlns:xlink="http://www.w3.org/1999/xlink" width="1920" height="1080" viewBox="-1040.888888888889 -32 1889.7777777777778 1063" id="ccdiagram"><filter id="grayscale"><feColorMatrix type="matrix" values="0.3333 0.3333 0.3333 0 0 0.3333 0.3333 0.3333 0 0 0.3333 0.3333 0.3333 0 0 0 0 0 1 0"></feColorMatrix></filter><defs><style type="text/css">@import url('https://fonts.googleapis.com/css?family=Open+Sans:400,700|Inconsolata:400');</style></defs><g><g pointer-events="auto"><g opacity="1"><g><g><polygon points="32 19, 736 426, 736 463, 448 629, 384 629, -320 222, -320 185, -32 19" fill="#ffffff" stroke-width="2" stroke="#818181"></polygon><polygon points="0 37, 704 444, 416 611, -288 204" fill="#e6e7e8" stroke-width="0" stroke="#818181"></polygon></g></g></g><g opacity="1"><g><g><polygon points="-320 518, 80 749, 82 785, -174 952, -240 953, -656 712, -656 675, -384 518" fill="#ffffff" stroke-width="2" stroke="#818181"></polygon><polygon points="-352 537, 48 768, -208 934, -624 694" fill="#dbf8fc" stroke-width="0" stroke="#818181"></polygon></g></g></g></g><g pointer-events="auto"></g><g></g><g pointer-events="auto"></g><g></g><g pointer-events="auto"></g><g pointer-events="none"></g><g pointer-events="auto"><g><g cursor="cell"><line x1="-63" y1="406" x2="13" y2="220" stroke="red" stroke-width="8" opacity="0"></line><line x1="-63" y1="406" x2="13" y2="220" stroke="#000000" stroke-width="2" stroke-linecap="round"></line><polygon points="16 213, -1 225, 12 223, 22 228, 16 213" stroke-linejoin="round" fill="#000000" stroke="#000000" stroke-width="1"></polygon></g></g><g><g cursor="cell"><line x1="-432" y1="453" x2="-164" y2="453" stroke="red" stroke-width="12" opacity="0"></line><line x1="-432" y1="453" x2="-164" y2="453" stroke="#000000" stroke-width="6" stroke-linecap="round"></line><polygon points="-144 453, -181 443, -170 453, -181 463, -144 453" stroke-linejoin="round" fill="#000000" stroke="#000000" stroke-width="1"></polygon></g></g><g><g cursor="cell"><line x1="-291" y1="382" x2="-173" y2="405" stroke="red" stroke-width="8" opacity="0"></line><line x1="-291" y1="382" x2="-173" y2="405" stroke="#000000" stroke-width="2" stroke-linecap="round"></line><polygon points="-304 379, -284 390, -287 382, -277 377, -304 379" stroke-linejoin="round" fill="#000000" stroke="#000000" stroke-width="1"></polygon><polygon points="-160 407, -180 396, -177 404, -187 409, -160 407" stroke-linejoin="round" fill="#000000" stroke="#000000" stroke-width="1"></polygon></g></g><g><g cursor="cell"><line x1="-610" y1="564" x2="-464" y2="564" stroke="red" stroke-width="8" opacity="0"></line><line x1="-610" y1="564" x2="-464" y2="564" stroke="#000000" stroke-width="2" stroke-dasharray="8,6" stroke-linecap="butt"></line><polygon points="-624 564, -599 571, -606 564, -599 558, -624 564" stroke-linejoin="round" fill="#000000" stroke="#000000" stroke-width="1"></polygon></g></g><g><g cursor="cell"><line x1="104" y1="689" x2="-89" y2="488" stroke="red" stroke-width="8" opacity="0"></line><line x1="104" y1="689" x2="-89" y2="488" stroke="#000000" stroke-width="2" stroke-linecap="round"></line><polygon points="-96 481, -94 497, -87 490, -74 490, -96 481" stroke-linejoin="round" fill="#000000" stroke="#000000" stroke-width="1"></polygon></g></g><g><g cursor="cell"><line x1="-272" y1="842" x2="-368" y2="786" stroke="red" stroke-width="8" opacity="0"></line><line x1="-272" y1="842" x2="-368" y2="786" stroke="#000000" stroke-width="2" stroke-linecap="round"></line></g></g><g><g cursor="cell"><line x1="-368" y1="786" x2="-454" y2="736" stroke="red" stroke-width="8" opacity="0"></line><line x1="-368" y1="786" x2="-454" y2="736" stroke="#000000" stroke-width="2" stroke-linecap="round"></line><polygon points="-464 731, -455 746, -452 738, -438 736, -464 731" stroke-linejoin="round" fill="#000000" stroke="#000000" stroke-width="1"></polygon></g></g><g><g cursor="cell"><line x1="48" y1="342" x2="-54" y2="401" stroke="red" stroke-width="8" opacity="0"></line><line x1="48" y1="342" x2="-54" y2="401" stroke="#000000" stroke-width="2" stroke-linecap="round"></line><polygon points="-64 407, -38 402, -52 400, -55 392, -64 407" stroke-linejoin="round" fill="#000000" stroke="#000000" stroke-width="1"></polygon></g></g><g><g cursor="cell"><line x1="-464" y1="564" x2="-330" y2="612" stroke="red" stroke-width="8" opacity="0"></line><line x1="-464" y1="564" x2="-330" y2="612" stroke="#000000" stroke-width="2" stroke-dasharray="8,6" stroke-linecap="butt"></line><polygon points="-319 616, -334 603, -334 611, -346 615, -319 616" stroke-linejoin="round" fill="#000000" stroke="#000000" stroke-width="1"></polygon></g></g><g><g cursor="cell"><line x1="-239" y1="683" x2="-225" y2="769" stroke="red" stroke-width="8" opacity="0"></line><line x1="-239" y1="683" x2="-225" y2="769" stroke="#000000" stroke-width="2" stroke-dasharray="8,6" stroke-linecap="butt"></line><polygon points="-240 675, -249 690, -238 685, -226 689, -240 675" stroke-linejoin="round" fill="#000000" stroke="#000000" stroke-width="1"></polygon><polygon points="-224 777, -215 762, -226 767, -238 763, -224 777" stroke-linejoin="round" fill="#000000" stroke="#000000" stroke-width="1"></polygon></g></g><g><g cursor="cell"><line x1="-72" y1="625" x2="-110" y2="480" stroke="red" stroke-width="8" opacity="0"></line><line x1="-72" y1="625" x2="-110" y2="480" stroke="#000000" stroke-width="2" stroke-linecap="round"></line><polygon points="-112 472, -120 487, -109 482, -97 485, -112 472" stroke-linejoin="round" fill="#000000" stroke="#000000" stroke-width="1"></polygon></g></g><g><g cursor="cell"><line x1="-112" y1="213" x2="-153" y2="173" stroke="red" stroke-width="8" opacity="0"></line><line x1="-112" y1="213" x2="-153" y2="173" stroke="#000000" stroke-width="2" stroke-linecap="round"></line><polygon points="-160 167, -157 182, -151 175, -137 175, -160 167" stroke-linejoin="round" fill="#000000" stroke="#000000" stroke-width="1"></polygon></g></g><g><g cursor="cell"><line x1="-63" y1="406" x2="-112" y2="213" stroke="red" stroke-width="8" opacity="0"></line><line x1="-63" y1="406" x2="-112" y2="213" stroke="#000000" stroke-width="2" stroke-linecap="round"></line></g></g><g><g cursor="cell"><line x1="290" y1="342" x2="48" y2="342" stroke="red" stroke-width="8" opacity="0"></line><line x1="290" y1="342" x2="48" y2="342" stroke="#000000" stroke-width="2" stroke-linecap="round"></line><polygon points="304 342, 279 336, 286 342, 279 349, 304 342" stroke-linejoin="round" fill="#000000" stroke="#000000" stroke-width="1"></polygon></g></g><g><g cursor="cell"><line x1="-432" y1="453" x2="-610" y2="556" stroke="red" stroke-width="12" opacity="0"></line><line x1="-432" y1="453" x2="-610" y2="556" stroke="#000000" stroke-width="6" stroke-linecap="round"></line><polygon points="-624 564, -586 556, -605 553, -610 542, -624 564" stroke-linejoin="round" fill="#000000" stroke="#000000" stroke-width="1"></polygon></g></g></g><g pointer-events="auto"><g opacity="1"><g id="dc908aa6-0151-40e1-b47b-ec06ce3ed589" transform="translate(0 0)"><g><polygon points="368 250, 400 268, 368 287, 336 268" fill="#8bc34a"></polygon><polygon points="336 305, 368 324, 368 287, 336 268" fill="#71a436" stroke="#edf6e3"></polygon><polygon points="368 324, 400 305, 400 268, 368 287" fill="#577d2a" stroke="#edf6e3"></polygon><polygon points="368 250, 336 268, 336 305, 368 324, 400 305, 400 268" fill="none" stroke="#000000" stroke-width="2"></polygon></g></g></g><g opacity="1"><g id="d3902e9d-b492-47aa-8c7f-de4d989178b4" transform="translate(0 0)"><svg x="-160" y="370" height="94" width="97" fill-rule="evenodd"><path d="M0 18.6v18.6l32.333 18.6h32.334L97 37.2V18.6L64.667 0H32.333L0 18.6z" fill="#ececed"></path><path d="M64.667 55.8L97 37.2v37.2L64.667 93V55.8z" fill="#b8b8bb"></path><path d="M32.333 55.8h32.334V93H32.333V55.8zM0 37.2v37.2L32.333 93V55.8L0 37.2z" fill="#d2d2d4"></path><g fill="none" stroke="#83838a" stroke-width="1.04"><path d="M.955 37.877L32.333 55.8h32.334l31.378-17.923M32.333 55.8v36.211M64.667 55.8v36.574"></path></g><path d="M97 18.6v55.8L64.667 93H32.333L0 74.4V18.6L32.333 0h32.334L97 18.6zM32.865 1.989L1.989 19.751v53.498l30.876 17.762h31.27l30.876-17.762V19.751L64.135 1.989h-31.27z" fill="#000000"></path><path d="M69.912 15.583c11.818 6.798 11.818 17.836 0 24.635-11.817 6.798-31.007 6.798-42.824 0-11.818-6.799-11.818-17.837 0-24.635 11.817-6.799 31.007-6.799 42.824 0z" fill="#4286c5"></path><path d="M49.584 14.774c1.824 1.049 1.824 2.753 0 3.802-1.824 1.05-4.786 1.05-6.61 0-1.824-1.049-1.824-2.753 0-3.802 1.824-1.05 4.786-1.05 6.61 0zM60.451 21.025c1.825 1.049 1.825 2.753 0 3.803-1.824 1.049-4.786 1.049-6.61 0-1.824-1.05-1.824-2.754 0-3.803s4.786-1.049 6.61 0zM71.319 27.276c1.824 1.05 1.824 2.754 0 3.803-1.825 1.049-4.787 1.049-6.611 0-1.824-1.049-1.824-2.753 0-3.803 1.824-1.049 4.786-1.049 6.611 0zM38.497 33.654c1.824 1.05 1.824 2.754 0 3.803-1.825 1.05-4.787 1.05-6.611 0-1.824-1.049-1.824-2.753 0-3.803 1.824-1.049 4.786-1.049 6.611 0z" fill="#ffffff"></path><path d="M47.458 15.878c.453.26.393.717-.133 1.02-.526.303-1.32.337-1.773.076-.452-.26-.392-.717.133-1.019.526-.303 1.321-.337 1.773-.077z" fill="#ffffff"></path><path d="M48.111 15.621c1.012.582 1.012 1.526 0 2.108-1.011.582-2.653.582-3.664 0-1.012-.582-1.012-1.526 0-2.108 1.011-.582 2.653-.582 3.664 0zM58.978 21.872c1.012.582 1.012 1.527 0 2.108-1.011.582-2.653.582-3.664 0-1.012-.581-1.012-1.526 0-2.108 1.011-.581 2.653-.581 3.664 0zM69.846 28.124c1.011.581 1.011 1.526 0 2.108-1.012.582-2.654.582-3.665 0-1.011-.582-1.011-1.527 0-2.108 1.011-.582 2.653-.582 3.665 0z" fill="#4286c5"></path><path d="M37.024 34.502c1.011.582 1.011 1.526 0 2.108-1.012.582-2.654.582-3.665 0-1.011-.582-1.011-1.526 0-2.108 1.011-.582 2.653-.582 3.665 0z" fill="#ffffff"></path><g fill="#ffffff"><path d="M52.301 25.172L37.719 33.56l.482.834 14.584-8.388-.484-.834z"></path><path d="M46.993 26.089l6.654-1.146-4.324 5.168c.189-1.691-.757-3.313-2.33-4.022z" stroke="#ffffff" stroke-width=".36"></path></g><g fill="#ffffff"><path d="M43.488 19.937l-6.057 13.797.886.387 6.056-13.798-.885-.386z"></path><path d="M39.76 23.812l4.676-4.854-.405 6.716c-.855-1.474-2.582-2.221-4.271-1.862z" stroke="#ffffff" stroke-width=".36"></path></g><g fill="#ffffff"><path d="M61.953 30.061l-23.985 3.483.14.955 23.985-3.486-.14-.952z"></path><path d="M56.68 28.957l6.608 1.387-5.936 3.209c.804-1.503.526-3.358-.672-4.596h0z" stroke="#ffffff" stroke-width=".36"></path></g><path d="M37.96 33.977l13.12-7.547M37.873 33.927l5.792-13.134M38.037 34.022l22.478-3.281" fill="#ffffff" stroke="#ffffff" stroke-width="1.93"></path></svg></g></g><g opacity="1"><g id="eba45157-f598-4c67-9556-c4c409bdb182" transform="translate(0 0)"><g><polygon points="-336 287, -272 324, -336 361, -400 324" fill="#f5b720"></polygon><polygon points="-400 361, -336 398, -336 361, -400 324" fill="#d89c0a" stroke="#fef6e3"></polygon><polygon points="-336 398, -272 361, -272 324, -336 361" fill="#a77908" stroke="#fef6e3"></polygon><polygon points="-336 287, -400 324, -400 361, -336 398, -272 361, -272 324" fill="none" stroke="#000000" stroke-width="2"></polygon></g></g></g><g opacity="1"><g id="e9fdf632-503c-44b0-a2f1-f857c0e7ce10" transform="translate(0 0)"><svg x="104" y="635" height="95.068" width="63" viewBox="0 0 16.669 25.153"><path d="M16.668 22.903q0 1.64-.864 2.091-.865.451-2.297-.376L3.161 18.645q-1.433-.827-2.297-2.276Q.001 14.921 0 13.28q0-.723.042-1.39.042-.666.166-1.394.124-.727.313-1.302.19-.575.51-1.039.319-.464.733-.683.414-.22 1.012-.147.598.073 1.32.49.107.06.497.58.391.52.882 1.165.491.646 1.279 1.394.788.75 1.58 1.207.793.458 1.58.618.788.161 1.28.083.49-.079.881-.147.39-.069.497-.007.722.416 1.32 1.035.598.619 1.013 1.315.414.697.734 1.531t.509 1.627q.19.793.313 1.664.124.872.166 1.586.042.713.042 1.438zM12.88 8.51q0 2.173-1.332 2.942-1.332.769-3.214-.318-1.882-1.086-3.214-3.393Q3.79 5.434 3.79 3.26q0-2.173 1.331-2.942 1.332-.77 3.214.317t3.214 3.394q1.332 2.306 1.332 4.48z" fill="#000" stroke="#000000" stroke-width=".268"></path></svg></g></g><g opacity="1"><g id="dfa494f1-82fe-42a5-bb99-2733664cd282" transform="translate(0 0)"><svg x="-72" y="571" height="95.068" width="63" viewBox="0 0 16.669 25.153"><path d="M16.668 22.903q0 1.64-.864 2.091-.865.451-2.297-.376L3.161 18.645q-1.433-.827-2.297-2.276Q.001 14.921 0 13.28q0-.723.042-1.39.042-.666.166-1.394.124-.727.313-1.302.19-.575.51-1.039.319-.464.733-.683.414-.22 1.012-.147.598.073 1.32.49.107.06.497.58.391.52.882 1.165.491.646 1.279 1.394.788.75 1.58 1.207.793.458 1.58.618.788.161 1.28.083.49-.079.881-.147.39-.069.497-.007.722.416 1.32 1.035.598.619 1.013 1.315.414.697.734 1.531t.509 1.627q.19.793.313 1.664.124.872.166 1.586.042.713.042 1.438zM12.88 8.51q0 2.173-1.332 2.942-1.332.769-3.214-.318-1.882-1.086-3.214-3.393Q3.79 5.434 3.79 3.26q0-2.173 1.331-2.942 1.332-.77 3.214.317t3.214 3.394q1.332 2.306 1.332 4.48z" fill="#000" stroke="#000000" stroke-width=".268"></path></svg></g></g><g opacity="1"><g id="ab381fd3-c5a1-43dd-a39d-dd6572a250ab" transform="translate(0 0)"><g><polygon points="-288 592, -224 629, -256 648, -320 611" fill="#673ab7"></polygon><polygon points="-320 648, -256 685, -256 648, -320 611" fill="#512e90" stroke="#daceef"></polygon><polygon points="-256 685, -224 666, -224 629, -256 648" fill="#3b216a" stroke="#daceef"></polygon><polygon points="-288 592, -320 611, -320 648, -256 685, -224 666, -224 629" fill="none" stroke="#000000" stroke-width="2"></polygon></g></g></g><g opacity="1"><g id="474f8c87-2261-4aea-a257-c1418910854a" transform="translate(0 0)"><svg x="-760" y="413" height="95.068" width="63" viewBox="0 0 16.669 25.153"><path d="M16.668 22.903q0 1.64-.864 2.091-.865.451-2.297-.376L3.161 18.645q-1.433-.827-2.297-2.276Q.001 14.921 0 13.28q0-.723.042-1.39.042-.666.166-1.394.124-.727.313-1.302.19-.575.51-1.039.319-.464.733-.683.414-.22 1.012-.147.598.073 1.32.49.107.06.497.58.391.52.882 1.165.491.646 1.279 1.394.788.75 1.58 1.207.793.458 1.58.618.788.161 1.28.083.49-.079.881-.147.39-.069.497-.007.722.416 1.32 1.035.598.619 1.013 1.315.414.697.734 1.531t.509 1.627q.19.793.313 1.664.124.872.166 1.586.042.713.042 1.438zM12.88 8.51q0 2.173-1.332 2.942-1.332.769-3.214-.318-1.882-1.086-3.214-3.393Q3.79 5.434 3.79 3.26q0-2.173 1.331-2.942 1.332-.77 3.214.317t3.214 3.394q1.332 2.306 1.332 4.48z" fill="#000" stroke="#000000" stroke-width=".268"></path></svg></g></g><g opacity="1"><g id="ef7eeba9-0111-4855-9ee7-2e262dd3202f" transform="translate(0 0)"><g><polygon points="-688 527, -624 564, -688 601, -752 564" fill="#4caf50"></polygon><polygon points="-752 601, -688 638, -688 601, -752 564" fill="#3d8b40" stroke="#d9eeda"></polygon><polygon points="-688 638, -624 601, -624 564, -688 601" fill="#2d682f" stroke="#d9eeda"></polygon><polygon points="-688 527, -752 564, -752 601, -688 638, -624 601, -624 564" fill="none" stroke="#000000" stroke-width="2"></polygon></g></g></g><g opacity="1"><g id="bdd7dbb4-9037-4021-a458-b07c8fde85c2" transform="translate(0 0)"><g><polygon points="-464 657, -432 675, -496 712, -528 694" fill="#00bcd4"></polygon><polygon points="-528 731, -496 749, -496 712, -528 694" fill="#008fa1" stroke="#a1f4ff"></polygon><polygon points="-496 749, -432 712, -432 675, -496 712" fill="#00626e" stroke="#a1f4ff"></polygon><polygon points="-464 657, -528 694, -528 731, -496 749, -432 712, -432 675" fill="none" stroke="#000000" stroke-width="2"></polygon></g></g></g><g opacity="1"><g id="0142c46c-c922-4c8a-8eaf-7dc60ea1df4f" transform="translate(0 0)"><g><polygon points="-208 768, -144 805, -208 842, -272 805" fill="#e91e63"></polygon><polygon points="-272 879, -208 916, -208 842, -272 805" fill="#c1134e" stroke="#fbd8e4"></polygon><polygon points="-208 916, -144 879, -144 805, -208 842" fill="#930e3b" stroke="#fbd8e4"></polygon><polygon points="-208 768, -272 805, -272 879, -208 916, -144 879, -144 805" fill="none" stroke="#000000" stroke-width="2"></polygon></g></g></g></g><g pointer-events="auto"></g><g pointer-events="auto"><g opacity="1"><g id="9eb2f9a6-f018-4000-bbae-ab88984dd7ea" transform="translate(0 0)"><svg x="-160" y="167" overflow="visible"><g transform="scale(0.8944271909999159) matrix(0.707 0.409 -0.707 0.409 0 0)"><circle cx="0" cy="0" fill="#000000" r="25.5"></circle><svg width="37" height="32" x="-18.5" y="-16" style="fill: rgb(255, 255, 255);"><svg xmlns="http://www.w3.org/2000/svg" width="37" height="32" viewBox="0 0 37 32"><path d="M32.571 16c2.214 0 4 1.786 4 4v6.857c0 .321-.25.571-.571.571h-1.714v1.143a3.43 3.43 0 0 1-6.858 0v-1.143H9.142v1.143a3.43 3.43 0 0 1-6.858 0v-1.143H.57a.564.564 0 0 1-.571-.571V20c0-2.214 1.786-4 4-4h.5l1.875-7.482c.554-2.25 2.732-3.946 5.054-3.946h2.286v-4c0-.321.25-.571.571-.571h8c.321 0 .571.25.571.571v4h2.286c2.321 0 4.5 1.696 5.054 3.946L32.071 16h.5zM5.714 24.571c1.571 0 2.857-1.286 2.857-2.857s-1.286-2.857-2.857-2.857-2.857 1.286-2.857 2.857 1.286 2.857 2.857 2.857zM9.214 16h18.143l-1.589-6.375c-.054-.196-.411-.482-.625-.482H11.429c-.214 0-.571.286-.625.482zm21.643 8.571c1.571 0 2.857-1.286 2.857-2.857s-1.286-2.857-2.857-2.857S28 20.143 28 21.714s1.286 2.857 2.857 2.857z"></path></svg></svg></g></svg></g></g><g opacity="1"><g id="9f768161-ce9f-4115-8d04-6fb7a66d03dc" transform="translate(0 0)"><svg x="16" y="194" overflow="visible"><g transform="scale(0.8944271909999159) matrix(0.707 0.409 -0.707 0.409 0 0)"><circle cx="0" cy="0" fill="#000000" r="25.5"></circle><svg width="37" height="32" x="-18.5" y="-16" style="fill: rgb(255, 255, 255);"><svg xmlns="http://www.w3.org/2000/svg" width="37" height="32" viewBox="0 0 37 32"><path d="M32.571 16c2.214 0 4 1.786 4 4v6.857c0 .321-.25.571-.571.571h-1.714v1.143a3.43 3.43 0 0 1-6.858 0v-1.143H9.142v1.143a3.43 3.43 0 0 1-6.858 0v-1.143H.57a.564.564 0 0 1-.571-.571V20c0-2.214 1.786-4 4-4h.5l1.875-7.482c.554-2.25 2.732-3.946 5.054-3.946h2.286v-4c0-.321.25-.571.571-.571h8c.321 0 .571.25.571.571v4h2.286c2.321 0 4.5 1.696 5.054 3.946L32.071 16h.5zM5.714 24.571c1.571 0 2.857-1.286 2.857-2.857s-1.286-2.857-2.857-2.857-2.857 1.286-2.857 2.857 1.286 2.857 2.857 2.857zM9.214 16h18.143l-1.589-6.375c-.054-.196-.411-.482-.625-.482H11.429c-.214 0-.571.286-.625.482zm21.643 8.571c1.571 0 2.857-1.286 2.857-2.857s-1.286-2.857-2.857-2.857S28 20.143 28 21.714s1.286 2.857 2.857 2.857z"></path></svg></svg></g></svg></g></g><g opacity="1"><g id="0518922d-f119-46d3-89aa-809ee58b1b5e" transform="translate(0 0)"><svg x="304" y="342" overflow="visible"><g transform="scale(1.7469281074217107) matrix(0.707 0.409 -0.707 0.409 0 0)"><circle cx="0" cy="0" fill="#000000" r="25.5"></circle><svg width="37" height="32" x="-18.5" y="-16" style="fill: rgb(255, 255, 255);"><svg xmlns="http://www.w3.org/2000/svg" width="37" height="32" viewBox="0 0 37 32"><path d="M32.571 16c2.214 0 4 1.786 4 4v6.857c0 .321-.25.571-.571.571h-1.714v1.143a3.43 3.43 0 0 1-6.858 0v-1.143H9.142v1.143a3.43 3.43 0 0 1-6.858 0v-1.143H.57a.564.564 0 0 1-.571-.571V20c0-2.214 1.786-4 4-4h.5l1.875-7.482c.554-2.25 2.732-3.946 5.054-3.946h2.286v-4c0-.321.25-.571.571-.571h8c.321 0 .571.25.571.571v4h2.286c2.321 0 4.5 1.696 5.054 3.946L32.071 16h.5zM5.714 24.571c1.571 0 2.857-1.286 2.857-2.857s-1.286-2.857-2.857-2.857-2.857 1.286-2.857 2.857 1.286 2.857 2.857 2.857zM9.214 16h18.143l-1.589-6.375c-.054-.196-.411-.482-.625-.482H11.429c-.214 0-.571.286-.625.482zm21.643 8.571c1.571 0 2.857-1.286 2.857-2.857s-1.286-2.857-2.857-2.857S28 20.143 28 21.714s1.286 2.857 2.857 2.857z"></path></svg></svg></g></svg></g></g></g><g pointer-events="auto"><g opacity="1"><g id="f337c5cb-9d93-4905-9584-7497eaba7648" transform="translate(0 0)"><svg x="448" y="167" overflow="visible"><text stroke="#ffffff" stroke-width="4" font-family="Open Sans" y="30.799999999999997" font-size="20pt" fill="#000000" font-weight="bold" transform="" xml:space="preserve"><tspan x="8" dy="0">Python client</tspan></text><text font-family="Open Sans" y="30.799999999999997" font-size="20pt" fill="#000000" font-weight="bold" transform="" xml:space="preserve"><tspan x="8" dy="0">Python client</tspan></text></svg></g></g><g opacity="1"><g id="d14a34fb-b7a9-4205-ac04-459321badd58" transform="translate(0 0)"><svg x="-544" y="241" overflow="visible"><text stroke="#ffffff" stroke-width="4" font-family="Open Sans" y="30.799999999999997" font-size="20pt" fill="#000000" font-weight="bold" transform="" xml:space="preserve"><tspan x="8" dy="0">Big Brain</tspan></text><text font-family="Open Sans" y="30.799999999999997" font-size="20pt" fill="#000000" font-weight="bold" transform="" xml:space="preserve"><tspan x="8" dy="0">Big Brain</tspan></text></svg></g></g><g opacity="1"><g id="74e62b85-2e22-433f-b679-e09a7f868c69"><svg x="-24" y="301" overflow="visible"><text stroke="#ffffff" stroke-width="4" font-family="Open Sans" y="36.5" font-size="25pt" fill="#000000" font-weight="bold" transform="matrix(0.707 0.409 -0.707 0.409 0 0)" xml:space="preserve"><tspan x="8" dy="0">mqtt</tspan></text><text font-family="Open Sans" y="36.5" font-size="25pt" fill="#000000" font-weight="bold" transform="matrix(0.707 0.409 -0.707 0.409 0 0)" xml:space="preserve"><tspan x="8" dy="0">mqtt</tspan></text></svg></g></g><g opacity="1"><g id="6d19098d-6415-441a-92f1-3ca89409c924" transform="translate(0 0)"><svg x="-544" y="278" overflow="visible"><text stroke="#ffffff" stroke-width="4" font-family="Open Sans" y="20.768" font-size="11.200000000000001pt" fill="#000000" font-weight="bold" transform="" xml:space="preserve"><tspan x="8" dy="0">Handshaking</tspan><tspan x="8" dy="1.1em">Player Scoring</tspan><tspan x="8" dy="1.1em">Security</tspan></text><text font-family="Open Sans" y="20.768" font-size="11.200000000000001pt" fill="#000000" font-weight="bold" transform="" xml:space="preserve"><tspan x="8" dy="0">Handshaking</tspan><tspan x="8" dy="1.1em">Player Scoring</tspan><tspan x="8" dy="1.1em">Security</tspan></text></svg></g></g><g opacity="1"><g id="db7330a7-2ea0-4404-b240-96ec4743a944" transform="translate(0 0)"><svg x="-48" y="453" overflow="visible"><text stroke="#ffffff" stroke-width="4" font-family="Open Sans" y="36.5" font-size="25pt" fill="#000000" font-weight="bold" transform="matrix(0.707 0.409 -0.707 0.409 0 0)" xml:space="preserve"><tspan x="8" dy="0">MQTT Broker / Kafka</tspan><tspan x="8" dy="1.1em"> </tspan></text><text font-family="Open Sans" y="36.5" font-size="25pt" fill="#000000" font-weight="bold" transform="matrix(0.707 0.409 -0.707 0.409 0 0)" xml:space="preserve"><tspan x="8" dy="0">MQTT Broker / Kafka</tspan><tspan x="8" dy="1.1em"> </tspan></text></svg></g></g><g opacity="1"><g id="5be5a1d1-a412-4bf1-b9cc-134a520315af" transform="translate(0 0)"><svg x="544" y="222" overflow="visible"><text stroke="#ffffff" stroke-width="4" font-family="Open Sans" y="20.768" font-size="11.200000000000001pt" fill="#000000" font-weight="bold" transform="" xml:space="preserve"><tspan x="8" dy="0">Ultrasonic Sensors</tspan><tspan x="8" dy="1.1em">Camera Vision</tspan><tspan x="8" dy="1.1em">Target Light sensors</tspan><tspan x="8" dy="1.1em">Camera over IP</tspan></text><text font-family="Open Sans" y="20.768" font-size="11.200000000000001pt" fill="#000000" font-weight="bold" transform="" xml:space="preserve"><tspan x="8" dy="0">Ultrasonic Sensors</tspan><tspan x="8" dy="1.1em">Camera Vision</tspan><tspan x="8" dy="1.1em">Target Light sensors</tspan><tspan x="8" dy="1.1em">Camera over IP</tspan></text></svg></g></g><g opacity="1"><g id="9bb48518-2477-44e4-b38a-470b499f9471" transform="translate(0 0)"><svg x="544" y="315" overflow="visible"><text stroke="#ffffff" stroke-width="4" font-family="Open Sans" y="20.768" font-size="11.200000000000001pt" fill="#000000" font-weight="bold" transform="" xml:space="preserve"><tspan x="8" dy="0">Client's commands</tspan><tspan x="8" dy="1.1em">Big Brain's commands</tspan></text><text font-family="Open Sans" y="20.768" font-size="11.200000000000001pt" fill="#000000" font-weight="bold" transform="" xml:space="preserve"><tspan x="8" dy="0">Client's commands</tspan><tspan x="8" dy="1.1em">Big Brain's commands</tspan></text></svg></g></g><g opacity="1"><g id="75e86dab-e079-4db3-9809-19ed101ec20e" transform="translate(0 0)"><svg x="448" y="241" overflow="visible"><text stroke="#ffffff" stroke-width="4" font-family="Open Sans" y="30.799999999999997" font-size="20pt" fill="#000000" font-weight="bold" transform="" xml:space="preserve"><tspan x="8" dy="0">SEND</tspan></text><text font-family="Open Sans" y="30.799999999999997" font-size="20pt" fill="#000000" font-weight="bold" transform="" xml:space="preserve"><tspan x="8" dy="0">SEND</tspan></text></svg></g></g><g opacity="1"><g id="244eaecc-c991-4eab-ace1-3bd8ab7d366e" transform="translate(0 0)"><svg x="416" y="315" overflow="visible"><text stroke="#ffffff" stroke-width="4" font-family="Open Sans" y="30.799999999999997" font-size="20pt" fill="#000000" font-weight="bold" transform="" xml:space="preserve"><tspan x="8" dy="0">RECEIVE</tspan></text><text font-family="Open Sans" y="30.799999999999997" font-size="20pt" fill="#000000" font-weight="bold" transform="" xml:space="preserve"><tspan x="8" dy="0">RECEIVE</tspan></text></svg></g></g><g opacity="1"><g id="f78ba849-37ed-4d36-a43a-acba358a339c" transform="translate(0 0)"><svg x="432" y="379" overflow="visible"><text stroke="#ffffff" stroke-width="4" font-family="Open Sans" y="26.24" font-size="16pt" fill="#000000" font-weight="bold" transform="" xml:space="preserve"><tspan x="8" dy="0">Translates commands </tspan><tspan x="8" dy="1.1em">into hardware actions</tspan></text><text font-family="Open Sans" y="26.24" font-size="16pt" fill="#000000" font-weight="bold" transform="" xml:space="preserve"><tspan x="8" dy="0">Translates commands </tspan><tspan x="8" dy="1.1em">into hardware actions</tspan></text></svg></g></g><g opacity="1"><g id="7d1dd39f-9a36-4bab-81c8-c2e45d4c91d7"><svg x="-784" y="472" overflow="visible"><text stroke="#ffffff" stroke-width="4" font-family="Open Sans" y="36.5" font-size="25pt" fill="#000000" font-weight="bold" transform="matrix(0.707 0.409 -0.707 0.409 0 0)" xml:space="preserve"><tspan x="8" dy="0">Player</tspan></text><text font-family="Open Sans" y="36.5" font-size="25pt" fill="#000000" font-weight="bold" transform="matrix(0.707 0.409 -0.707 0.409 0 0)" xml:space="preserve"><tspan x="8" dy="0">Player</tspan></text></svg></g></g><g opacity="1"><g id="3c999029-3894-4f20-8e4f-133bf8dfa725"><svg x="-416" y="463" overflow="visible"><text stroke="#ffffff" stroke-width="4" font-family="Open Sans" y="36.5" font-size="25pt" fill="#000000" font-weight="bold" transform="matrix(0.707 0.409 -0.707 0.409 0 0)" xml:space="preserve"><tspan x="8" dy="0">mqtt</tspan></text><text font-family="Open Sans" y="36.5" font-size="25pt" fill="#000000" font-weight="bold" transform="matrix(0.707 0.409 -0.707 0.409 0 0)" xml:space="preserve"><tspan x="8" dy="0">mqtt</tspan></text></svg></g></g><g opacity="1"><g id="edcc9db7-ba16-4d7a-ab4a-12fb91789a4b" transform="translate(0 0)"><svg x="-144" y="805" overflow="visible"><text stroke="#ffffff" stroke-width="4" font-family="Open Sans" y="26.24" font-size="16pt" fill="#000000" font-weight="bold" transform="" xml:space="preserve"><tspan x="8" dy="0">Python Simulator</tspan></text><text font-family="Open Sans" y="26.24" font-size="16pt" fill="#000000" font-weight="bold" transform="" xml:space="preserve"><tspan x="8" dy="0">Python Simulator</tspan></text></svg></g></g><g opacity="1"><g id="6afe0154-2cb3-42ea-8095-f6fa2fc83960" transform="translate(0 0)"><svg x="-144" y="842" overflow="visible"><text stroke="#ffffff" stroke-width="4" font-family="Open Sans" y="20.768" font-size="11.200000000000001pt" fill="#000000" font-weight="bold" transform="" xml:space="preserve"><tspan x="8" dy="0">Physic simulation</tspan><tspan x="8" dy="1.1em">Mqtt handling simulation</tspan></text><text font-family="Open Sans" y="20.768" font-size="11.200000000000001pt" fill="#000000" font-weight="bold" transform="" xml:space="preserve"><tspan x="8" dy="0">Physic simulation</tspan><tspan x="8" dy="1.1em">Mqtt handling simulation</tspan></text></svg></g></g><g opacity="1"><g id="b0ca71f5-c5ce-41e5-b76d-29f2820e042a" transform="translate(0 0)"><svg x="-336" y="546" overflow="visible"><text stroke="#ffffff" stroke-width="4" font-family="Open Sans" y="20.768" font-size="11.200000000000001pt" fill="#000000" font-weight="bold" transform="" xml:space="preserve"><tspan x="8" dy="0">Local MQTT Broker</tspan><tspan x="8" dy="1.1em">Big brain simulator</tspan></text><text font-family="Open Sans" y="20.768" font-size="11.200000000000001pt" fill="#000000" font-weight="bold" transform="" xml:space="preserve"><tspan x="8" dy="0">Local MQTT Broker</tspan><tspan x="8" dy="1.1em">Big brain simulator</tspan></text></svg></g></g><g opacity="1"><g id="6913f244-a234-47d1-9569-df9f62a25b29"><svg x="-760" y="597" overflow="visible"><text stroke="#ffffff" stroke-width="4" font-family="Open Sans" y="36.5" font-size="25pt" fill="#000000" font-weight="bold" transform="matrix(0.707 0.409 -0.707 0.409 0 0)" xml:space="preserve"><tspan x="8" dy="0">Client</tspan></text><text font-family="Open Sans" y="36.5" font-size="25pt" fill="#000000" font-weight="bold" transform="matrix(0.707 0.409 -0.707 0.409 0 0)" xml:space="preserve"><tspan x="8" dy="0">Client</tspan></text></svg></g></g><g opacity="1"><g id="462e90a9-5ae5-4b92-ba32-babdcb97a3e0" transform="translate(0 0)"><svg x="-592" y="768" overflow="visible"><text stroke="#ffffff" stroke-width="4" font-family="Open Sans" y="20.768" font-size="11.200000000000001pt" fill="#000000" font-weight="bold" transform="" xml:space="preserve"><tspan x="8" dy="0">WEB Renderer</tspan></text><text font-family="Open Sans" y="20.768" font-size="11.200000000000001pt" fill="#000000" font-weight="bold" transform="" xml:space="preserve"><tspan x="8" dy="0">WEB Renderer</tspan></text></svg></g></g><g opacity="1"><g id="5cc9c8ea-3b13-423a-ae99-72baf51df498"><svg x="-480" y="574" overflow="visible"><text stroke="#ffffff" stroke-width="4" font-family="Open Sans" y="21.68" font-size="12pt" fill="#000000" font-weight="bold" transform="matrix(0.707 0.409 -0.707 0.409 0 0)" xml:space="preserve"><tspan x="8" dy="0">dev mqtt </tspan><tspan x="8" dy="1.1em">communication</tspan></text><text font-family="Open Sans" y="21.68" font-size="12pt" fill="#000000" font-weight="bold" transform="matrix(0.707 0.409 -0.707 0.409 0 0)" xml:space="preserve"><tspan x="8" dy="0">dev mqtt </tspan><tspan x="8" dy="1.1em">communication</tspan></text></svg></g></g><g opacity="1"><g id="054fb7fd-336b-4ecc-9788-ceb1fbeab80a"><svg x="-400" y="786" overflow="visible"><text stroke="#ffffff" stroke-width="4" font-family="Open Sans" y="23.96" font-size="14pt" fill="#000000" font-weight="bold" transform="matrix(0.707 0.409 -0.707 0.409 0 0)" xml:space="preserve"><tspan x="8" dy="0">web socket</tspan></text><text font-family="Open Sans" y="23.96" font-size="14pt" fill="#000000" font-weight="bold" transform="matrix(0.707 0.409 -0.707 0.409 0 0)" xml:space="preserve"><tspan x="8" dy="0">web socket</tspan></text></svg></g></g><g opacity="1"><g id="53564dd3-3b9c-4bd4-8827-56b0326be2b0" transform="translate(0 0)"><svg x="-384" y="648" overflow="visible"><text stroke="#ffffff" stroke-width="4" font-family="Open Sans" y="36.5" font-size="25pt" fill="#000000" font-weight="bold" transform="matrix(0.707 0.409 -0.707 0.409 0 0)" xml:space="preserve"><tspan x="8" dy="0">DEV Space</tspan></text><text font-family="Open Sans" y="36.5" font-size="25pt" fill="#000000" font-weight="bold" transform="matrix(0.707 0.409 -0.707 0.409 0 0)" xml:space="preserve"><tspan x="8" dy="0">DEV Space</tspan></text></svg></g></g><g opacity="1"><g id="e65ce6eb-3ca2-46d2-a674-470f71e50592" transform="translate(0 0)"><svg x="160" y="185" overflow="visible"><text stroke="#ffffff" stroke-width="4" font-family="Open Sans" y="36.5" font-size="25pt" fill="#000000" font-weight="bold" transform="matrix(0.707 0.409 -0.707 0.409 0 0)" xml:space="preserve"><tspan x="8" dy="0">ARENA</tspan></text><text font-family="Open Sans" y="36.5" font-size="25pt" fill="#000000" font-weight="bold" transform="matrix(0.707 0.409 -0.707 0.409 0 0)" xml:space="preserve"><tspan x="8" dy="0">ARENA</tspan></text></svg></g></g><g opacity="1"><g id="45fa573a-2293-47ca-9dd1-f98ca812b79e" transform="translate(0 0)"><svg x="-64" y="703" overflow="visible"><text stroke="#ffffff" stroke-width="4" font-family="Open Sans" y="30.799999999999997" font-size="20pt" fill="#000000" font-weight="bold" transform="matrix(0.707 0.409 -0.707 0.409 0 0)" xml:space="preserve"><tspan x="8" dy="0">Dockerized </tspan><tspan x="8" dy="1.1em">bundle</tspan></text><text font-family="Open Sans" y="30.799999999999997" font-size="20pt" fill="#000000" font-weight="bold" transform="matrix(0.707 0.409 -0.707 0.409 0 0)" xml:space="preserve"><tspan x="8" dy="0">Dockerized </tspan><tspan x="8" dy="1.1em">bundle</tspan></text></svg></g></g></g><g></g></g></svg>